# xmcd
#
# Track frame offsets: 
#        150
#        21827
#        45260
#        62905
#        79246
#        102390
#        123351
#        142189
#        167678
#        185759
#        213327
#        228171
#        254114
#        281967
#        304243
#
# Disc length: 4345 seconds
#
# Revision: 0
# Processed by: cddbd v1.5.2PL0 Copyright (c) Steve Scherf et al.
# Submitted via: ExactAudioCopyFreeDBPlugin 1.0
#
DISCID=e210f70f
DTITLE=Kim Anh - Toi dua em sang song
DYEAR=1900
DGENRE=Ballad
TTITLE0=Tiec thuong
TTITLE1=Anh ve voi em
TTITLE2=Linh hon tuong da
TTITLE3=Cho
TTITLE4=Han nguoi
TTITLE5=Buom trang
TTITLE6=Em van con thuong
TTITLE7=Anh oi neu dung dang do
TTITLE8=Mong sau
TTITLE9=Pho vang em roi
TTITLE10=Thuong dau
TTITLE11=TOi dua em sang song
TTITLE12=Mua thu yeu duong
TTITLE13=Nho mua thu Hanoi
TTITLE14=Ha noi pho
EXTD=
EXTT0=
EXTT1=
EXTT2=
EXTT3=
EXTT4=
EXTT5=
EXTT6=
EXTT7=
EXTT8=
EXTT9=
EXTT10=
EXTT11=
EXTT12=
EXTT13=
EXTT14=
PLAYORDER=
